<?xml version="1.0" encoding="UTF-8" standalone="no"?>
<svg
   xmlns="http://www.w3.org/2000/svg"
   height="1200"
   width="1200"
   id="svg92"
   version="1.1">
  <title
     id="title6">Future Engineers Logo White</title>
  <g
     id="g864">
    <circle
       style="opacity:1;fill:#ffffff;fill-opacity:1;fill-rule:nonzero;stroke:none;stroke-width:4.63141775;stroke-linecap:round;stroke-linejoin:miter;stroke-miterlimit:10;stroke-dasharray:none;stroke-dashoffset:0;stroke-opacity:1;paint-order:stroke markers fill"
       id="path834"
       cx="600"
       cy="600"
       r="590.38214" />
    <circle
       style="opacity:1;fill:none;fill-opacity:1;fill-rule:nonzero;stroke:#000000;stroke-width:29;stroke-linecap:round;stroke-linejoin:miter;stroke-miterlimit:10;stroke-dasharray:none;stroke-dashoffset:0;stroke-opacity:1;paint-order:stroke markers fill"
       id="path842"
       cy="600"
       cx="600"
       r="528.34204" />
    <g
       transform="matrix(1.0279035,0,0,1.0279035,-27.862961,675.35444)"
       id="g1021">
      <path
         style="fill:#000000;stroke-width:2.1915946"
         id="path10"
         d="m 882.14589,-145.09352 c -16.74378,0 -18.45323,-14.68369 -18.47514,-14.8371 v -138.74985 c 0,-21.08314 14.24536,-23.88839 14.39877,-23.9103 l 66.58065,-24.10754 a 19.549024,19.549024 0 0 1 6.57478,-1.16155 c 6.57478,0 13.76321,3.39697 14.61794,10.95798 1.40262,12.38251 -7.42951,16.69995 -7.51717,16.74378 l -64.34522,23.42815 v 38.7693 c 4.01062,-1.55603 16.7657,-6.57478 20.71057,-7.75824 a 18.05874,18.05874 0 0 1 6.02688,-1.11771 c 9.48961,0 13.54406,8.76637 13.69747,9.13895 0.15341,0.37257 3.90104,14.9905 -8.76638,19.22028 -4.99683,2.19159 -26.29913,10.10325 -30.13442,11.50587 v 45.87008 l 51.30523,-18.9573 a 19.417528,19.417528 0 0 1 4.07636,-0.39448 c 4.27361,0 11.79078,1.2492 14.20153,9.57726 3.19973,10.95798 -3.83529,17.66426 -10.80456,19.98735 -6.57478,2.52033 -16.96294,6.26796 -27.87708,10.25666 -16.87528,6.13646 -34.32037,12.49209 -40.78558,15.23158 h -0.13149 -0.1315 a 32.063029,32.063029 0 0 1 -3.19973,0.17533 z"
         class="cls-2" />
      <path
         style="fill:#000000;stroke-width:2.1915946"
         id="path14"
         d="m 706.11701,93.132809 c -3.28739,0 -5.17216,-2.191595 -5.17216,-5.851558 V 16.909148 a 9.3800249,9.3800249 0 0 1 5.39132,-9.3142766 l 42.1882,-15.1877506 h 0.15341 a 6.8158592,6.8158592 0 0 1 6.57478,7.58291729 9.5115206,9.5115206 0 0 1 -6.28988,9.62110031 L 715.32171,21.971732 v 18.146403 l 21.41188,-7.122682 a 6.3117924,6.3117924 0 0 1 1.66561,-0.21916 c 1.53411,0 5.10641,0.613647 5.10641,6.246045 0,8.130816 -6.26796,9.51152 -6.31179,9.51152 l -21.91594,7.561002 v 16.32738 l 33.2684,-11.6812 h 0.17533 a 6.7062795,6.7062795 0 0 1 6.44329,6.574784 c 0,8.481471 -5.98306,10.673066 -6.22413,10.76073 L 708.988,92.562994 a 9.2923611,9.2923611 0 0 1 -2.87099,0.569815 z"
         class="cls-2" />
      <path
         style="fill:#000000;stroke-width:2.1915946"
         id="path18"
         d="m 774.93308,67.995219 c -3.33122,0 -5.21599,-2.191595 -5.21599,-5.873474 V -8.2065257 a 9.336193,9.336193 0 0 1 5.41323,-9.3142773 l 42.21012,-15.18775 h 0.15341 c 0,0 6.57478,0 6.57478,7.582917 a 9.5553525,9.5553525 0 0 1 -6.26796,9.643016 L 784.15969,-3.1658581 V 15.024377 l 18.19024,-6.6843635 a 6.0488011,6.0488011 0 0 1 1.68753,-0.2191594 c 1.53411,0 5.10641,0.6136464 5.10641,6.2679609 0,8.065068 -6.24604,9.467688 -6.31179,9.489604 l -18.67239,7.188431 v 16.305463 l 33.29033,-11.812695 h 0.19724 a 6.7939433,6.7939433 0 0 1 6.42137,6.684364 c 0,8.415723 -5.93922,10.694982 -6.20221,10.782645 l -39.97469,14.486441 a 9.314277,9.314277 0 0 1 -2.95865,0.482151 z"
         class="cls-2" />
      <path
         style="fill:#000000;stroke-width:2.1915946"
         id="path22"
         d="m 359.7574,220.88086 a 3.7476268,3.7476268 0 0 1 -2.84907,-1.16155 6.0049692,6.0049692 0 0 1 -1.29304,-4.03253 v -73.37459 c 0,-5.43515 5.5009,-7.53908 5.74197,-7.62675 l 38.65973,-13.98237 a 5.3913227,5.3913227 0 0 1 1.29304,-0.1315 c 1.38071,0 5.87348,0.48215 5.87348,6.57479 a 10.563486,10.563486 0 0 1 -6.57479,9.99367 l -30.68232,11.15521 v 19.22029 l 18.19023,-7.0131 a 2.827157,2.827157 0 0 1 0.76706,0 c 1.27113,0 5.45707,0.50406 6.1803,6.85969 a 8.5472189,8.5472189 0 0 1 -6.31179,9.22661 l -18.8258,6.79394 v 16.85337 l 30.15634,-10.69498 a 5.2379111,5.2379111 0 0 1 1.03005,0 5.4132387,5.4132387 0 0 1 3.87912,1.55603 7.9554884,7.9554884 0 0 1 1.92861,5.82964 c 0,8.76638 -6.57479,9.86217 -6.70628,9.86217 -0.1315,0 -32.26028,11.74695 -38.02417,13.82897 a 7.5829173,7.5829173 0 0 1 -2.43267,0.26299 z"
         class="cls-2" />
      <path
         style="fill:#000000;stroke-width:2.1915946"
         id="path26"
         d="m 432.43068,195.98434 a 6.8158592,6.8158592 0 0 1 -6.96927,-6.42137 v -69.93378 a 10.344327,10.344327 0 0 1 7.05693,-9.29236 9.8840916,9.8840916 0 0 1 3.37506,-0.61365 9.3581089,9.3581089 0 0 1 5.3694,1.66561 l 35.61342,40.04043 0.10957,-52.422938 a 7.4514216,7.4514216 0 0 1 7.86783,-7.626749 6.7720273,6.7720273 0 0 1 7.31993,6.772027 v 72.95818 a 7.6705811,7.6705811 0 0 1 -5.50091,5.56665 10.957973,10.957973 0 0 1 -3.63804,0.70132 5.3255749,5.3255749 0 0 1 -4.7996,-2.34501 l -37.65159,-41.96904 v 55.84183 a 7.3856738,7.3856738 0 0 1 -6.85969,7.01311 10.65115,10.65115 0 0 1 -1.29304,0.0657 z"
         class="cls-2" />
      <path
         style="fill:#000000;stroke-width:2.1915946"
         id="path30"
         d="m 626.21147,123.33298 a 5.5666503,5.5666503 0 0 1 -5.30366,-3.19973 7.8239927,7.8239927 0 0 1 -0.74514,-3.09014 V 45.575206 a 10.234747,10.234747 0 0 1 5.98305,-7.692497 8.1089,8.1089 0 0 1 2.78333,-0.504067 10.015587,10.015587 0 0 1 6.35562,2.54225 l 36.29281,41.114314 0.1315,-53.562572 a 8.1965638,8.1965638 0 0 1 7.36375,-8.766378 9.336193,9.336193 0 0 1 1.59987,-0.153412 5.6104822,5.6104822 0 0 1 4.16403,1.62178 8.6129668,8.6129668 0 0 1 1.81902,5.500903 V 94.79842 c 0,0.284908 0,7.0131 -5.52282,8.98554 a 10.738814,10.738814 0 0 1 -3.68188,0.70131 8.9855379,8.9855379 0 0 1 -7.1446,-3.5723 L 635.06551,62.560064 v 52.729766 c 0,0 0.61365,6.57478 -7.31992,7.86782 a 10.103251,10.103251 0 0 1 -1.53412,0.17533 z"
         class="cls-2" />
      <path
         style="fill:#000000;stroke-width:2.1915946"
         id="path34"
         d="m 597.85224,135.25526 a 7.2103462,7.2103462 0 0 1 -7.2761,-4.71193 v -0.10958 -73.265009 a 8.0650681,8.0650681 0 0 1 7.16652,-7.758245 7.0788506,7.0788506 0 0 1 1.20537,0 c 4.07637,0 5.87348,3.944871 6.24605,6.026885 v 73.703329 a 8.0431522,8.0431522 0 0 1 -7.34184,6.11455 z"
         class="cls-2" />
      <path
         style="fill:#000000;stroke-width:2.1915946"
         id="path38"
         d="m 542.79938,154.97961 a 35.065514,35.065514 0 0 1 -23.09941,-8.76638 C 501.37824,129.71052 506.39699,107.22476 510.9336,95.258655 a 43.19633,43.19633 0 0 1 7.64866,-12.557837 37.41052,37.41052 0 0 1 26.60596,-12.535921 h 1.64369 a 27.920915,27.920915 0 0 1 10.65115,2.32309 9.6868481,9.6868481 0 0 1 5.91731,6.421373 6.7062795,6.7062795 0 0 1 -1.49028,5.983053 5.5666503,5.5666503 0 0 1 -4.55852,2.147763 13.872794,13.872794 0 0 1 -3.94487,-0.701311 h -0.28491 a 27.920915,27.920915 0 0 0 -7.561,-1.249209 h -1.27113 a 24.107541,24.107541 0 0 0 -18.95729,13.653635 34.16696,34.16696 0 0 0 0.70131,32.326019 21.433795,21.433795 0 0 0 6.22413,6.57478 18.716218,18.716218 0 0 0 11.06755,3.50656 16.239716,16.239716 0 0 0 12.27293,-4.86534 26.123808,26.123808 0 0 0 6.24605,-14.24537 c -2.1916,0.70131 -6.81586,2.1916 -9.16087,2.69566 a 7.1226825,7.1226825 0 0 1 -1.64369,0.19725 5.0406676,5.0406676 0 0 1 -5.19408,-4.38319 7.1665143,7.1665143 0 0 1 1.16154,-5.58857 6.7501114,6.7501114 0 0 1 4.22978,-2.43267 l 13.98237,-4.49277 a 12.535921,12.535921 0 0 1 4.60235,-1.00813 c 2.03819,0 5.5009,0.81089 5.69815,6.1803 0.5479,13.85087 -3.00249,25.13759 -10.21283,32.65475 a 30.989148,30.989148 0 0 1 -22.50768,9.11704 z"
         class="cls-2" />
      <path
         style="fill:#000000;stroke-width:2.1915946"
         id="path42"
         d="m 847.32145,43.690434 c -3.30931,0 -6.75011,-1.950519 -6.75011,-5.237911 v -73.330755 a 6.2898765,6.2898765 0 0 1 4.01062,-6.37754 l 20.57907,-7.451422 a 34.649111,34.649111 0 0 1 10.95797,-1.994351 c 5.7639,0 10.43199,1.884771 13.14957,5.281743 3.19973,4.010618 3.61613,7.736329 3.96679,17.313597 a 18.54089,18.54089 0 0 1 -11.33055,17.773833 c 3.79146,3.9667857 18.97921,19.8777625 24.10754,24.743103 a 6.4213722,6.4213722 0 0 1 0.83281,6.991186 7.8239927,7.8239927 0 0 1 -6.85969,4.05445 7.29801,7.29801 0 0 1 -5.52282,-2.542249 c -1.27112,-1.402621 -5.25983,-5.478987 -9.86218,-10.212831 -7.0131,-7.1665146 -14.88092,-15.3411624 -17.07252,-17.8395803 L 853.61133,0.27494539 V 37.532054 a 5.8515576,5.8515576 0 0 1 -6.28988,6.15838 z m 6.28988,-56.126737 c 3.8572,-1.424537 15.75756,-5.78581 17.73,-6.443288 8.08698,-3.090149 8.76638,-5.741978 8.76638,-9.752596 a 10.957973,10.957973 0 0 0 -2.1916,-7.582918 4.3831892,4.3831892 0 0 0 -3.30931,-1.358788 9.0074538,9.0074538 0 0 0 -3.28739,0.723226 c -1.70944,0.70131 -14.77135,5.45707 -17.73,6.574784 z"
         class="cls-2" />
      <path
         style="fill:#000000;stroke-width:2.1915946"
         id="path46"
         d="m 936.19061,10.728852 a 34.364203,34.364203 0 0 1 -24.58969,-12.7550809 8.7663784,8.7663784 0 0 1 -1.13963,-9.0951181 6.5747838,6.5747838 0 0 1 5.85156,-3.550383 9.2923611,9.2923611 0 0 1 6.72819,3.396972 20.140754,20.140754 0 0 0 13.34681,7.8678245 12.952324,12.952324 0 0 0 2.71758,0.2849073 14.420692,14.420692 0 0 0 12.29485,-6.5747838 9.7745119,9.7745119 0 0 0 -1.59987,-12.031854 10.585402,10.585402 0 0 0 -3.94487,-2.65183 c -2.65183,-1.051965 -15.62607,-4.624264 -20.97356,-5.917305 -6.44328,-1.577948 -13.4783,-5.917306 -15.47265,-8.766379 a 20.754401,20.754401 0 0 1 -2.82716,-5.785809 21.915946,21.915946 0 0 1 -0.76706,-6.180297 20.798233,20.798233 0 0 1 2.4765,-10.366243 25.422497,25.422497 0 0 1 6.57479,-7.210346 c 6.83777,-5.478986 17.53275,-5.763894 19.57094,-5.763894 a 18.781966,18.781966 0 0 1 2.8929,0.175328 c 10.43199,1.709444 16.2178,4.05445 18.19024,7.40759 a 6.5747838,6.5747838 0 0 1 0.26299,5.895389 v 0.131496 0.10958 a 7.1445984,7.1445984 0 0 1 -5.87348,3.199728 14.026205,14.026205 0 0 1 -6.02688,-1.709444 24.523944,24.523944 0 0 0 -10.62924,-2.65183 14.223449,14.223449 0 0 0 -10.30049,3.769543 10.366242,10.366242 0 0 0 -2.01627,5.435155 7.2760941,7.2760941 0 0 0 2.1916,5.720062 15.823313,15.823313 0 0 0 6.20221,3.309307 l 9.90601,2.717578 7.07885,1.862855 2.98057,0.788974 1.99435,0.525983 a 23.340482,23.340482 0 0 1 6.77203,3.462719 20.075007,20.075007 0 0 1 4.8215,4.733845 22.902164,22.902164 0 0 1 2.87099,5.873473 22.376181,22.376181 0 0 1 0.94239,6.246045 c -0.10958,1.139629 -0.61365,28.096243 -30.507,28.096243 z"
         class="cls-2" />
      <path
         style="fill:#000000;stroke-width:2.1915946"
         id="path66"
         d="m 305.16478,243.43237 c -14.74943,0 -16.45888,-7.91166 -16.45888,-13.85088 0,-8.76638 0,-8.76638 0,-76.70581 l -0.30682,-226.873876 a 56.126738,56.126738 0 0 1 -15.8014,2.191595 c -13.14957,0 -31.86578,-4.580433 -45.73858,-26.299135 -10.01558,-16.130134 -10.51965,-37.257104 -1.44645,-61.364654 7.95549,-19.22028 25.8389,-33.64097 56.25823,-45.34409 l 447.39213,-164.06277 c 18.21215,-6.70628 34.95593,-10.08133 49.77111,-10.08133 16.56845,0 30.68232,4.14211 41.74988,12.33867 a 51.283314,51.283314 0 0 1 17.75191,22.946 c 0.26299,0.43832 7.6925,13.91662 4.07637,35.96407 -4.55852,19.92159 -18.65047,36.8407 -35.87641,43.17441 l -31.44938,11.57162 62.15363,98.44643 1.9286,2.71758 c 15.20966,21.28038 22.85833,31.97536 39.77744,31.97536 9.84026,0 22.72684,-3.46272 44.48937,-11.96611 11.85653,-3.61613 19.72435,-6.83777 19.72435,-6.8816 a 23.73497,23.73497 0 0 1 7.78016,-1.35879 13.281063,13.281063 0 0 1 13.14957,8.32806 14.837095,14.837095 0 0 1 -0.24107,11.63737 16.590371,16.590371 0 0 1 -9.66494,8.98553 l -4.05445,1.49029 c -10.76073,3.9887 -39.3172,14.596018 -45.78241,16.612285 a 74.645712,74.645712 0 0 1 -24.61161,4.383189 61.364649,61.364649 0 0 1 -51.85312,-27.438764 c -0.65748,-1.11771 -63.03026,-105.67869 -75.47852,-125.49071 l 0.32874,196.827114 c 0,0.131496 -0.32874,12.031855 -15.34116,12.031855 -10.27858,0 -13.60981,-7.889741 -13.60981,-11.725032 V -234.18184 l -13.50022,4.97491 a 10.43199,10.43199 0 0 1 -2.0601,0.15342 13.149568,13.149568 0 0 1 -13.52214,-10.25667 c -2.19159,-9.24853 2.1916,-16.6342 12.14144,-20.29416 l 20.99547,-7.71442 v -69.53929 l -409.36795,150.05848 v 70.02145 l 68.79415,-25.57591 a 15.976725,15.976725 0 0 1 4.09828,-0.50407 c 3.85721,0 10.65115,1.38071 12.73317,10.54157 a 17.532757,17.532757 0 0 1 -11.59354,19.3737 l -2.98057,1.3807 -71.05149,26.34297 c 0,15.472658 0.52598,309.16825 0.52598,314.36233 0.0877,3.35314 -0.92047,14.2892 -13.82896,14.2892 z m -16.98486,-418.85756 c -4.79959,1.59986 -23.69114,8.43764 -33.02733,20.33799 -10.95797,14.59602 -7.49525,31.33981 -6.15838,36.11748 4.38319,13.50023 15.122,16.32738 23.29665,16.32738 a 48.741064,48.741064 0 0 0 15.97672,-3.00248 z M 757.35649,-277.5535 c 6.02689,-2.01627 27.02236,-9.59919 32.76434,-11.70312 9.6211,-3.55038 24.10754,-8.91979 26.29914,-28.09624 -0.26299,-16.56846 -9.97176,-34.40804 -36.46814,-34.40804 h -0.32874 a 77.713945,77.713945 0 0 0 -22.33235,4.18595 z"
         class="cls-2" />
      <path
         style="fill:#000000;stroke-width:2.1915946"
         id="path70"
         d="m 520.9711,42.20015 c -13.36873,0 -14.66177,-11.527788 -14.66177,-11.637367 V -154.03523 l -34.73677,12.66742 a 5.4132387,5.4132387 0 0 1 -1.13963,0 14.070037,14.070037 0 0 1 -13.54406,-9.3362 16.524623,16.524623 0 0 1 0.41641,-12.75508 13.149568,13.149568 0 0 1 6.83777,-6.90352 l 105.9636,-38.98847 a 14.990507,14.990507 0 0 1 3.11206,-0.28491 12.16335,12.16335 0 0 1 12.66742,8.94171 c 0,0.1315 4.6681,15.8014 -9.66493,20.73249 l -39.4487,14.55218 V 28.590348 a 12.557837,12.557837 0 0 1 -2.69567,8.525303 14.837095,14.837095 0 0 1 -10.5854,4.887256 q -1.27112,0.109579 -2.41075,0.109579 z"
         class="cls-2" />
      <path
         style="fill:#000000;stroke-width:2.1915946"
         id="path74"
         d="m 409.33127,84.541758 c -37.12561,0 -53.7379,-31.62471 -53.7379,-62.964513 v -92.331881 0 a 13.850878,13.850878 0 0 1 13.6098,-14.201533 c 15.51649,0 15.97673,11.637368 15.97673,11.768863 V 22.62921 c 0,22.573425 13.14956,32.676676 26.29913,32.676676 a 26.671706,26.671706 0 0 0 18.80388,-7.955489 c 4.16403,-4.207861 9.11704,-11.922274 8.98554,-24.699271 v -116.790076 0 c 0.32874,-16.06439 13.45639,-16.67803 13.58789,-16.67803 15.8014,0 15.99864,13.522134 15.99864,13.653629 V 23.155193 c 0,44.138715 -33.88205,60.882498 -56.65272,61.364649 -0.87664,0 -1.86286,0.02192 -2.87099,0.02192 z"
         class="cls-2" />
      <path
         style="fill:#000000;stroke-width:2.1915946"
         id="path82"
         d="m 626.51829,5.4251927 c -37.10369,0 -53.82556,-31.6247097 -53.82556,-63.0302607 v -86.721402 0 a 20.820149,20.820149 0 0 1 13.52214,-19.72435 17.532757,17.532757 0 0 1 4.79959,-0.72322 c 8.21848,0 10.95797,7.27609 11.54971,9.6211 h 0.19724 v 0.87663 l -0.43832,97.65746 c 0,10.32241 2.82716,18.891545 8.19656,24.743103 a 24.239036,24.239036 0 0 0 18.05874,7.933572 26.693622,26.693622 0 0 0 18.80388,-7.955488 c 4.16403,-4.207862 9.11704,-11.922275 8.98554,-24.699271 v -116.680496 0 c 0.72323,-15.82331 13.36873,-19.11071 13.50023,-19.13262 a 16.809531,16.809531 0 0 1 4.66809,-0.72323 11.483956,11.483956 0 0 1 10.95798,9.00746 h 0.26299 l 0.15341,1.13962 v 127.112492 c 0,44.094883 -33.88205,60.8386658 -56.67464,61.3646485 -0.72322,-0.087664 -1.75327,-0.065748 -2.71758,-0.065748 z"
         class="cls-2" />
    </g>
  </g>
</svg>